<svg id="Lager_1" data-name="Lager 1" xmlns="http://www.w3.org/2000/svg" xmlns:xlink="http://www.w3.org/1999/xlink" viewBox="0 0 793.41 209.79"><defs><style>.cls-1{fill:#fff;}.cls-2{fill:#0d0e1f;}.cls-3{fill:#f4e721;}.cls-4{fill:url(#Namnlös_övertoning_41);}.cls-5{fill:url(#Namnlös_övertoning_41-2);}.cls-6{fill:url(#Namnlös_övertoning_41-3);}.cls-7{fill:url(#Namnlös_övertoning_41-4);}.cls-8{fill:url(#Namnlös_övertoning_41-5);}.cls-9{fill:url(#Namnlös_övertoning_41-6);}.cls-10{fill:url(#Namnlös_övertoning_41-7);}.cls-11{fill:url(#Namnlös_övertoning_41-8);}.cls-12{fill:url(#Namnlös_övertoning_41-9);}.cls-13{fill:url(#Namnlös_övertoning_41-10);}.cls-14{fill:url(#Namnlös_övertoning_40);}.cls-15{fill:url(#Namnlös_övertoning_40-2);}.cls-16{fill:url(#Namnlös_övertoning_40-3);}.cls-17{fill:url(#Namnlös_övertoning_40-4);}.cls-18{fill:url(#Namnlös_övertoning_40-5);}.cls-19{fill:url(#Namnlös_övertoning_40-6);}.cls-20{fill:url(#Namnlös_övertoning_40-7);}.cls-21{fill:url(#Namnlös_övertoning_40-8);}.cls-22{fill:url(#Namnlös_övertoning_40-9);}.cls-23{fill:url(#Namnlös_övertoning_40-10);}</style><linearGradient id="Namnlös_övertoning_41" x1="127.66" y1="201.87" x2="127.66" y2="354.29" gradientUnits="userSpaceOnUse"><stop offset="0" stop-color="#fcea10"/><stop offset="1" stop-color="#e94e1b"/></linearGradient><linearGradient id="Namnlös_övertoning_41-2" x1="211.93" y1="218.48" x2="211.93" y2="325.75" xlink:href="#Namnlös_övertoning_41"/><linearGradient id="Namnlös_övertoning_41-3" x1="285.81" y1="212.99" x2="285.81" y2="324.02" xlink:href="#Namnlös_övertoning_41"/><linearGradient id="Namnlös_övertoning_41-4" x1="354.06" y1="210.57" x2="354.06" y2="323.12" xlink:href="#Namnlös_övertoning_41"/><linearGradient id="Namnlös_övertoning_41-5" x1="415.97" y1="210.1" x2="415.97" y2="322.72" xlink:href="#Namnlös_övertoning_41"/><linearGradient id="Namnlös_övertoning_41-6" x1="478.86" y1="210.08" x2="478.86" y2="322.95" xlink:href="#Namnlös_övertoning_41"/><linearGradient id="Namnlös_övertoning_41-7" x1="543.07" y1="211.2" x2="543.07" y2="323.48" xlink:href="#Namnlös_övertoning_41"/><linearGradient id="Namnlös_övertoning_41-8" x1="610.07" y1="214.11" x2="610.07" y2="324.81" xlink:href="#Namnlös_övertoning_41"/><linearGradient id="Namnlös_övertoning_41-9" x1="660.49" y1="218.79" x2="660.49" y2="325.59" xlink:href="#Namnlös_övertoning_41"/><linearGradient id="Namnlös_övertoning_41-10" x1="727.55" y1="209.66" x2="727.55" y2="343.07" xlink:href="#Namnlös_övertoning_41"/><linearGradient id="Namnlös_övertoning_40" x1="127.98" y1="204.87" x2="127.98" y2="351.29" gradientUnits="userSpaceOnUse"><stop offset="0" stop-color="#f9b233"/><stop offset="1" stop-color="#e94e1b"/></linearGradient><linearGradient id="Namnlös_övertoning_40-2" x1="212.17" y1="221.48" x2="212.17" y2="322.67" xlink:href="#Namnlös_övertoning_40"/><linearGradient id="Namnlös_övertoning_40-3" x1="285.87" y1="216.16" x2="285.87" y2="320.97" xlink:href="#Namnlös_övertoning_40"/><linearGradient id="Namnlös_övertoning_40-4" x1="354.12" y1="213.64" x2="354.12" y2="320.09" xlink:href="#Namnlös_övertoning_40"/><linearGradient id="Namnlös_övertoning_40-5" x1="417.54" y1="213.13" x2="417.54" y2="319.72" xlink:href="#Namnlös_övertoning_40"/><linearGradient id="Namnlös_övertoning_40-6" x1="480.48" y1="213.13" x2="480.48" y2="319.93" xlink:href="#Namnlös_övertoning_40"/><linearGradient id="Namnlös_övertoning_40-7" x1="544.9" y1="214.43" x2="544.9" y2="320.48" xlink:href="#Namnlös_övertoning_40"/><linearGradient id="Namnlös_övertoning_40-8" x1="611.9" y1="217.55" x2="611.9" y2="321.74" xlink:href="#Namnlös_övertoning_40"/><linearGradient id="Namnlös_övertoning_40-9" x1="662.53" y1="222.48" x2="662.53" y2="322.52" xlink:href="#Namnlös_övertoning_40"/><linearGradient id="Namnlös_övertoning_40-10" x1="725.99" y1="212.68" x2="725.99" y2="340.03" xlink:href="#Namnlös_övertoning_40"/></defs><title>logo</title><path class="cls-1" d="M175.1,248.28l-.19.1.07-.47-4.86,2L176,213l-.06-.46a12.88,12.88,0,0,0-4.45-7.9,11.82,11.82,0,0,0-8.07-2.73,20.76,20.76,0,0,0-2.87.21c-20.6,2.85-41.56,6.08-62.32,9.6l-6.63,1.12L96.88,217c2.85,2.27,5.76,4.63,8.66,7L79.45,353.6v.06h0l-.13.62h.13v7.37H142.3a21.27,21.27,0,0,0,12.57-4c3.86-2.75,6.34-6.09,7-10.05q8.25-50.79,16.45-101.65C177.27,246.43,176.11,247.86,175.1,248.28ZM127,331.53l-5,.09,6.28-34.25,5-2.05Zm13.73-104.48-4.4,24.85-4.16,6.24L138,226.76C138.57,226.76,139.68,226.91,140.76,227.05Z" transform="translate(-32.13 -176.87)"/><path class="cls-1" d="M578.9,313a10.69,10.69,0,0,0,0-1.79l-5.41-65.37-3.72,1.4c-8.64,3.24-17.41,6.62-26.52,10.22l-1.21-18.86,4.22.18,1,13.9,3.77-1.43c6.74-2.55,13.44-5.05,19.94-7.41l2.15-.78-.63-7.65.15-.06-.87-10.52a11.33,11.33,0,0,0-4.58-8,15.51,15.51,0,0,0-9.11-3.45c-14.66-.78-29.5-1.43-44.11-1.94l-6.76-.23,7.31,8.65h-.07l.25,3.6,3.32,64.3.08,0,.4,7.74,3.93-1.63c9.39-3.9,18.3-7.55,26.94-11l1.46,20.68-4.62-.07-1-15.07L541.36,290c-6.67,2.78-13.68,5.73-20.82,8.77l-1.92.82.58,11.32a11.86,11.86,0,0,0,.15,1.35l.33,6.35a11.94,11.94,0,0,0,4.56,8.74,14.86,14.86,0,0,0,9.68,3.53q16.2.15,32.4.35h.21a13.31,13.31,0,0,0,9.25-3.4,10.45,10.45,0,0,0,3.61-8.87Z" transform="translate(-32.13 -176.87)"/><path class="cls-1" d="M244,220.87a12.15,12.15,0,0,0-7.57-2.39c-.48,0-1,0-1.48.06-14.8,1.26-29.83,2.68-44.65,4.22l-5.6.58,3.6,4.32c.67.81,1.35,1.62,2,2.44l-14.1,95.65,1.18,0-1.18,8,3.56-.08q10.83-.26,21.66-.49l2.56-.06L208.75,298l3.71-1.56L208.8,325l1,0-1,8,3.48-.07,21.64-.42,2.63,0,11-95.52a8.73,8.73,0,0,0-.46-4l.46-4A8.55,8.55,0,0,0,244,220.87Zm-28.27,25,3.22-.26-2.94,23-3.53,1.5Z" transform="translate(-32.13 -176.87)"/><path class="cls-1" d="M313.56,213.17c-18.05.93-36.38,2.09-54.49,3.44l-2.49.19-1.92,18.07.85-.06-.85,8.06,3.56-.24q6.43-.44,12.86-.84L263.18,324H264l-.77,8,3.35,0,21.61-.31,2.72,0,7.63-91.42c4.83-.25,9.67-.5,14.47-.72l2.66-.13L317,221l-.59,0,.59-8Z" transform="translate(-32.13 -176.87)"/><path class="cls-1" d="M381.52,210.64c-18,.41-36.21,1-54.21,1.86l-2.69.12L323.44,231l.52,0-.52,8,3.33-.14q6.68-.28,13.33-.52l-4.59,84.77H336l-.44,8,3.2,0,21.58-.17h2.86l3.9-93.4c4.75-.13,9.5-.24,14.21-.33l2.85-.06.58-18.55h-.25l.25-8Z" transform="translate(-32.13 -176.87)"/><path class="cls-1" d="M446.08,302.57H433.83l-16.16,0,.9-84.48h-.08l.08-8-3.05,0c-7.84.06-15.81.16-23.68.3l-6.1.11,6.41,8L390,310.27a11.57,11.57,0,0,0,.14,2l-.14,6a11.34,11.34,0,0,0,4,8.92,13.85,13.85,0,0,0,9.52,3.53h.05q15,0,30.07-.05H446.2l-.05-8h.05Z" transform="translate(-32.13 -176.87)"/><path class="cls-1" d="M510.38,303l-2.84,0c-8.46-.08-17.05-.16-25.67-.21l-.62-23.52c6.38-2.66,12.5-5.2,18.49-7.65l1.95-.8-.31-7.87.31-.13-.76-19.41L497,244.93c-5.33,2.15-10.85,4.4-16.47,6.71l-.38-14.59c7.94.15,15.95.33,23.87.54l3.22.09-.35-8h.35l-.8-18.49-2.79-.09c-16.83-.5-33.91-.83-50.75-1l-6.41,0,6.83,8.34v8l1.31,91.9a11.64,11.64,0,0,0,4.28,8.86,14.32,14.32,0,0,0,9.63,3.55c13.22,0,26.53.11,39.57.2l3.15,0-.34-8h.34Z" transform="translate(-32.13 -176.87)"/><path class="cls-1" d="M635.7,218.79l-2.43-.21c-6.8-.58-13.7-1.14-20.52-1.66l-3.61-.28.89,8.07-.89-.07,3.32,30.13-3.33,1.2L605,216.34l-2.51-.18c-7.9-.57-15.93-1.11-23.86-1.6l-7.24-.45,7.93,8.95v.07h-.05l.05,7.93,9.19,100.72,2.7,0,21.61.34,3.39,0-.83-8h.83l-4.33-41.7,3.48-1.31L621,332.3l2.64,0,21.63.4,3.46.07-1-8,1,0Z" transform="translate(-32.13 -176.87)"/><path class="cls-1" d="M670.1,222l-2.33-.24c-8-.79-16.06-1.56-24-2.27l-7.82-.71,7.72,8.26.92,9,12.77,97,2.57.05,21.66.47,3.55.08-1.16-8,1.16,0Z" transform="translate(-32.13 -176.87)"/><path class="cls-2" d="M403.57,355.72h.12q15,0,30-.05l33.27,0c.5,0,1,0,1.5,0,13.19,0,26.47.11,39.48.2l29.42-.05h0q14.14.14,28.3.3h0l25.22.64,21.56.33,10.79.19q10.8.18,21.58.4l6.41.12,8.16.17,18.18.4,2.65,17,23.74.25,28.93.31,35.22.55-.62-3.33-.93-4.85-9.67-55.53q7.07-2.1,13.84-4l26.86-7.39-.81-3.75-1-3.82-10-49.74,39.73-41.46-49.39-6.16c-11.08-1.39-22.07-3-32.67-4.78-3.63-.61-19.92-3-51.31-6.89a34.19,34.19,0,0,0-3.91-.24,31.14,31.14,0,0,0-23.68,10.86c-.21.25-.42.51-.62.77l-5.92-.58,0-.11-17.22-1.47L627.71,193v-.05l-2.54-.18L574,189.22h0c-17.43-1.08-60.58-2.84-60.58-2.84h0l-3.85-.11-57.2-1.14h0l-8.56-.23h0l-9.61.08-40.34.38h0l-7.85.18L334.9,187h0l-15.75.81-18,.83v.14c-14.61.82-29.33,1.78-43.9,2.87l-23.3,1.88h0l-1.06.07c-11.93,1-24,2.14-36,3.34a39,39,0,0,0-8.8-11.13,36.57,36.57,0,0,0-24.59-9,46.9,46.9,0,0,0-6.3.44c-20.84,2.89-42.06,6.16-63.06,9.72L32.13,197.52,78,234,55,348.56l-.52,2.5v.12l-5.77,27.9-.9,3.34-1.06,4,95.59.2a46.43,46.43,0,0,0,27.06-8.59c8.61-6.12,13.07-13.25,15.35-19.51l17.28-.39L212.8,358l21.58-.43,18.19-.33,14.35-.22q10.79-.17,21.56-.31l24.48-.34,26-.23,21.53-.17,26.68-.18" transform="translate(-32.13 -176.87)"/><path class="cls-1" d="M758.75,236.31l14.31-14.93c-14.33-1.79-25.86-3.61-33.72-4.94-2.7-.45-18.5-2.84-50.21-6.72a6.33,6.33,0,0,0-.86-.06,6,6,0,0,0-4.68,2.11,6.85,6.85,0,0,0-1.44,5.64l.57,3.7a7.19,7.19,0,0,0-.57,4.3l19.49,125.28,2.54,0,29,.31,3.61,0-1.4-8,1.4,0-8.29-47.57c12.16-3.92,24.07-7.51,35.57-10.7l2.69-.75c-.46-2.3-1-4.86-1.54-7.57l1.54-.43Zm-33.5,6.22,4.06,22.14c-2,.58-3.94,1.16-5.92,1.76l-4.29-24.65Z" transform="translate(-32.13 -176.87)"/><path class="cls-3" d="M169.34,250.47c1.92-1.06,3.72-1.5,5.64-2.56,1-.43,2.27-1.42,3.28-1.84Q170,296.86,161.83,347.65c-.62,4-3.1,7.3-7,10.05a21.27,21.27,0,0,1-12.57,4H79.44v-8l26.22-122.27c-1,.55-1-.36-.74-3,.2-2.38,4.19-3.12,1.71-5.09L103.46,220l-3-1.75c20.75-3.51,39.63-6,60.22-8.84a20.87,20.87,0,0,1,2.87-.21,11.8,11.8,0,0,1,8.08,2.74c2.5,2.2,2.57,4.3,3,7.34M120.36,340.87l8.3-.15,8.17-46.83c-2.83,1.17-5.67,2.33-8.5,3.48Zm10.16-79.93c1.39-2.08,6.09,2.23,7.47.15l5.39-33.81c-1,.12-4.72-.64-5.69-.5Z" transform="translate(-32.13 -176.87)"/><path class="cls-3" d="M190.34,238.1c-.67-.82,1.52-2,.85-2.79l.69-3.31-1.56-1.24c14.82-1.54,29.85-3,44.65-4.22.51,0,1-.06,1.48-.06a12.15,12.15,0,0,1,7.57,2.39,8.55,8.55,0,0,1,3.53,8.09l-11,95.52-2.63,0-21.64.42-3.48.07,4.74-37-4.79,2L204,333.12l-2.56.06q-10.83.22-21.66.49l-3.56.08Zm21,40.48,4.67-2,4-31.08-4.25.35Z" transform="translate(-32.13 -176.87)"/><path class="cls-3" d="M271.85,241.74q-6.81.42-13.63.89l-3.56.24,1.92-18.07,2.49-.19c18.11-1.35,36.44-2.51,54.49-3.44L317,221l-1.34,18.36-2.66.13c-4.8.22-9.64.47-14.47.72l-7.63,91.42-2.72,0-21.61.31-3.35,0Z" transform="translate(-32.13 -176.87)"/><path class="cls-3" d="M340.54,238.33q-6.89.25-13.77.54l-3.33.14,1.18-18.39,2.69-.12c18-.83,36.24-1.45,54.21-1.86l3.17-.07-.58,18.55-2.85.06c-4.71.09-9.46.2-14.21.33l-3.9,93.4h-2.86l-21.58.17-3.2,0Z" transform="translate(-32.13 -176.87)"/><path class="cls-3" d="M403.57,330.72a13.85,13.85,0,0,1-9.52-3.53,11.34,11.34,0,0,1-4-8.92l2.11-91.71.73-7.62-.13-.41c7.87-.14,14.93-.34,22.77-.4l3.05,0-1,92.48,16.24,0h12.25l.12,20.11H433.69q-15,0-30.07.05Z" transform="translate(-32.13 -176.87)"/><path class="cls-3" d="M508.09,330.93c-13-.09-26.35-.16-39.57-.2a14.32,14.32,0,0,1-9.63-3.55,11.64,11.64,0,0,1-4.28-8.86l-1.31-91.9v-8l.42-.28c16.84.14,33.08.46,49.91,1l2.79.09.8,18.49-3.22-.09c-8-.21-16.08-.4-24.09-.54l.6,22.59c5.62-2.31,11.14-4.56,16.47-6.71l3.95-1.59.76,19.41-1.95.8c-6.06,2.48-12.25,5-18.7,7.74l.83,31.43c8.62,0,17.21.13,25.67.21l2.84,0,.86,20Z" transform="translate(-32.13 -176.87)"/><path class="cls-3" d="M558.55,221.08a15.51,15.51,0,0,1,9.11,3.45,11.32,11.32,0,0,1,4.58,8l.87,10.52-2.15.78c-6.5,2.36-13.2,4.86-19.94,7.41l-3.77,1.43-1-13.9L542,238.6l1.7,26.56c9.11-3.59,17.88-7,26.52-10.22l3.72-1.39,5.41,65.37a10.45,10.45,0,0,1-3.61,8.87,13.31,13.31,0,0,1-9.25,3.4h-.21q-16.2-.19-32.4-.35a14.86,14.86,0,0,1-9.68-3.53,11.94,11.94,0,0,1-4.56-8.74l-.59-11.31,1.93-.82c7.14-3,14.15-6,20.82-8.77l3.88-1.61,1,15.06,4.68.08-2-28.39c-8.64,3.46-17.55,7.11-26.94,11l-3.93,1.63L515,227.56l-.55-7.71" transform="translate(-32.13 -176.87)"/><path class="cls-3" d="M602.5,224.16l2.51.18L609.13,264l4.18-1.51-4.17-37.82,3.61.28c6.82.52,13.72,1.08,20.52,1.66l2.43.21,13,106-3.46-.07-21.63-.4-2.64,0-5.64-51.1-4.29,1.61,5.14,49.4-3.39,0-21.61-.34-2.7,0-9.19-100.72-.05-7.93" transform="translate(-32.13 -176.87)"/><path class="cls-3" d="M667.77,229.77l2.33.24,15,103.58-3.55-.08L659.88,333l-2.57-.05-12.77-97-1-9.51" transform="translate(-32.13 -176.87)"/><path class="cls-3" d="M733.13,351l-29-.31-2.54,0L682.15,225.41a6.85,6.85,0,0,1,1.44-5.64,6,6,0,0,1,4.68-2.11,6.33,6.33,0,0,1,.86.06c31.71,3.88,47.51,6.27,50.21,6.72,7.86,1.33,10,2.27,24.33,4.06-4.77,5-2,2.77-6.75,7.75,2.65,13.25,7.14,34.56,9.79,47.8l-2.69.75c-12.21,3.38-24.87,7.21-37.81,11.42l1,.06,9.54,54.79Zm-9.74-76.6c2.44-.74,4.89-1.46,7.31-2.17l-5.45-29.73-7.58-.93Z" transform="translate(-32.13 -176.87)"/><path class="cls-4" d="M79.31,354.29,105.54,224c-2.9-2.41-5.81-4.77-8.66-7l-5.27-4.18,6.63-1.12c20.76-3.52,41.72-6.75,62.32-9.6a20.76,20.76,0,0,1,2.87-.21,11.82,11.82,0,0,1,8.07,2.73,12.88,12.88,0,0,1,4.45,7.9l.06.46-5.89,36.91,4.86-2L160.51,340.2c-.63,4-2.9,7.38-6.77,10.12a21.18,21.18,0,0,1-12.56,4Zm39.41-22.62,8.31-.14,8.16-46.83q-4.24,1.76-8.5,3.48Zm13.48-73.53,4.16-6.24,4.81-27.12-2.93.39Z" transform="translate(-32.13 -176.87)"/><path class="cls-5" d="M190.34,230.1c-.67-.82-1.35-1.63-2-2.44l-3.6-4.32,5.6-.58c14.82-1.54,29.85-3,44.65-4.22.51,0,1-.06,1.48-.06a12.15,12.15,0,0,1,7.57,2.39,8.55,8.55,0,0,1,3.53,8.09l-11,95.52-2.63,0-21.64.42-3.48.07,4.74-37-4.79,2L204,325.12l-2.56.06q-10.83.22-21.66.49l-3.56.08Zm21,40.48,4.67-2,4-31.08-4.25.35Z" transform="translate(-32.13 -176.87)"/><path class="cls-6" d="M271.85,233.74q-6.81.42-13.63.89l-3.56.24,1.92-18.07,2.49-.19c18.11-1.35,36.44-2.51,54.49-3.44L317,213l-1.34,18.36-2.66.13c-4.8.22-9.64.47-14.47.72l-7.63,91.42-2.72,0-21.61.31-3.35,0Z" transform="translate(-32.13 -176.87)"/><path class="cls-7" d="M340.54,230.33q-6.89.25-13.77.54l-3.33.14,1.18-18.39,2.69-.12c18-.83,36.24-1.45,54.21-1.86l3.17-.07-.58,18.55-2.85.06c-4.71.09-9.46.2-14.21.33l-3.9,93.4h-2.86l-21.58.17-3.2,0Z" transform="translate(-32.13 -176.87)"/><path class="cls-8" d="M403.57,322.72a13.85,13.85,0,0,1-9.52-3.53,11.34,11.34,0,0,1-4-8.92l2.11-91.71-6.41-8,6.1-.11c7.87-.14,15.84-.24,23.68-.3l3.05,0-1,92.48,16.24,0h12.25l.12,20.11H433.69q-15,0-30.07.05Z" transform="translate(-32.13 -176.87)"/><path class="cls-9" d="M508.09,322.93c-13-.09-26.35-.16-39.57-.2a14.32,14.32,0,0,1-9.63-3.55,11.64,11.64,0,0,1-4.28-8.86l-1.31-91.9-6.83-8.34,6.41,0c16.84.14,33.92.47,50.75,1l2.79.09.8,18.49-3.22-.09c-8-.21-16.08-.4-24.09-.54l.6,22.59c5.62-2.31,11.14-4.56,16.47-6.71l3.95-1.59.76,19.41-1.95.8c-6.06,2.48-12.25,5-18.7,7.74l.83,31.43c8.62,0,17.21.13,25.67.21l2.84,0,.86,20Z" transform="translate(-32.13 -176.87)"/><path class="cls-10" d="M565.84,323.48q-16.2-.19-32.39-.35a14.87,14.87,0,0,1-9.69-3.53,11.93,11.93,0,0,1-4.56-8.73l-.58-11.32,1.92-.82c7.14-3,14.15-6,20.82-8.77l3.88-1.61,1,15.07,4.68.07-2-28.39c-8.65,3.47-17.56,7.11-26.95,11L518,287.75l-3.5-67.9-7.31-8.65,6.76.23c14.61.51,29.45,1.16,44.11,1.94a15.51,15.51,0,0,1,9.11,3.45,11.33,11.33,0,0,1,4.58,8l.87,10.52-2.15.78c-6.49,2.37-13.2,4.86-19.94,7.41L546.77,245l-1-13.9-4.23-.18,1.7,26.57c9.11-3.6,17.88-7,26.52-10.22l3.72-1.4,5.41,65.37a10.45,10.45,0,0,1-3.61,8.87,13.31,13.31,0,0,1-9.25,3.4Z" transform="translate(-32.13 -176.87)"/><path class="cls-11" d="M645.28,324.74l-21.63-.4-2.64,0-5.64-51.1-4.29,1.61,5.14,49.4-3.39,0-21.61-.34-2.7,0-9.19-100.72-7.93-8.95,7.24.45c7.93.49,16,1,23.86,1.6l2.51.18L609.13,256l4.18-1.51-4.17-37.82,3.61.28c6.82.52,13.72,1.08,20.52,1.66l2.43.21,13,106Z" transform="translate(-32.13 -176.87)"/><path class="cls-12" d="M681.54,325.51,659.88,325l-2.57-.05-12.77-97-8.64-9.25,7.82.71c8,.71,16.08,1.48,24,2.27l2.33.24,15,103.58Z" transform="translate(-32.13 -176.87)"/><path class="cls-13" d="M733.13,343l-29-.31-2.54,0L682.15,217.41a6.85,6.85,0,0,1,1.44-5.64,6,6,0,0,1,4.68-2.11,6.33,6.33,0,0,1,.86.06c31.71,3.88,47.51,6.27,50.21,6.72,7.86,1.33,19.39,3.15,33.72,4.94l-14.31,14.93,8,39.74-2.69.75c-12.21,3.38-24.87,7.21-37.81,11.42l1,.06,9.54,54.79Zm-9.74-76.6c2.44-.74,4.89-1.46,7.31-2.17l-5.45-29.73-7.58-.93Z" transform="translate(-32.13 -176.87)"/><path class="cls-14" d="M141.18,351.29H83q13.6-67.59,25.85-128.43-5-4.23-10.08-8.23,31.27-5.3,62.22-9.58,5.61-.78,8.55,1.81a9.86,9.86,0,0,1,3.46,6.08q-2.76,17.25-5.59,35-17.14,7.29-34.44,14.47,3.13-4.68,6.25-9.37c1.9-10.73,4.45-21,6.3-31.46-3.05.4-7.95.59-11,1-2.86,15.59-4.59,31.4-7.56,47.62q22.25-8.65,44.26-17.53-6.6,42-13.66,87.07c-.49,3.14-2.34,5.87-5.53,8.14A18.25,18.25,0,0,1,141.18,351.29Zm-11.62-16.8q4.86-27.92,9.53-54.64Q131.58,283,124,286q-4.38,23.89-8.93,48.72Z" transform="translate(-32.13 -176.87)"/><path class="cls-15" d="M244.57,228.62q-5.16,44.72-10.7,92.91-10.83.2-21.65.42,2.52-19.68,5-38.75-11.18,4.71-22.42,9.38l10.68-.47q-2,14.85-4.05,30.07-10.83.22-21.66.49,7.14-48.53,13.77-93.46l-2.87-3.47q22.35-2.33,44.6-4.21a9.74,9.74,0,0,1,7,1.72A5.59,5.59,0,0,1,244.57,228.62Zm-21.12,5.6c-3.45.28-6.9.56-10.35.86q-2.65,19.83-5.42,40.32,5.56-2.36,11.1-4.73Q221.15,252.17,223.45,234.22Z" transform="translate(-32.13 -176.87)"/><path class="cls-16" d="M288.1,320.66l-21.62.31q4.51-46.91,8.69-90.45-8.57.54-17.15,1.12.64-6.06,1.28-12,27.26-2,54.42-3.44-.45,6.14-.9,12.32-13.68.65-27.37,1.43,4.95,1.76,9.93,3.56Q291.87,275.53,288.1,320.66Z" transform="translate(-32.13 -176.87)"/><path class="cls-17" d="M360.27,319.92l-21.59.17q2.61-48.21,5-92.87-8.54.3-17.06.65.39-6.23.79-12.38,27.1-1.23,54.15-1.85-.19,6.24-.39,12.54-13.62.27-27.26.7,5,1.94,10.05,3.91Q362.21,273.75,360.27,319.92Z" transform="translate(-32.13 -176.87)"/><path class="cls-18" d="M414.61,300.94l-10.76,4.68q19.63-.08,39.25-.05,0,7,.08,14.11-19.79,0-39.56,0a11,11,0,0,1-7.57-2.77,8.28,8.28,0,0,1-3-6.61q1.11-48.18,2.14-92.8l-3.29-4.11q11.83-.21,23.65-.3Q415.09,255.46,414.61,300.94Z" transform="translate(-32.13 -176.87)"/><path class="cls-19" d="M477.63,256.07q10.28-4.24,20.47-8.35c.17,4.32.34,8.68.51,13q-15.44,6.32-31,12.91c3.51,0,7,.06,10.51.09q.36,13.5.73,27.29l-10.58,4.58q19.62.09,39.25.29.31,7,.61,14-19.78-.14-39.58-.2a11.37,11.37,0,0,1-7.67-2.81,8.75,8.75,0,0,1-3.25-6.65l-1.32-92.94-3.44-4.2q25.33.21,50.69,1,.27,6.21.54,12.49-13.62-.36-27.25-.59Q477.24,240.85,477.63,256.07Z" transform="translate(-32.13 -176.87)"/><path class="cls-20" d="M565.87,320.48q-16.2-.19-32.4-.35a11.86,11.86,0,0,1-7.77-2.82,9,9,0,0,1-3.5-6.6c-.16-3.08-.32-6.16-.48-9.22q10.42-4.44,20.79-8.76l.87,13.64,10.72.17q-1.11-15.89-2.2-31.37,5-4.25,9.87-8.41-20.37,8-41,16.58l-3.33-64.66c-1.2-1.42-2.4-2.83-3.59-4.25q22,.76,44,1.94a12.47,12.47,0,0,1,7.39,2.79,8.41,8.41,0,0,1,3.47,5.92c.23,2.74.46,5.48.68,8.24q-10,3.62-20,7.42-.43-6.31-.88-12.55l-10.25-.43,1.9,29.67q-4.93,4.17-9.91,8.41,20.35-8.2,40.5-15.8,2.48,30,5.08,61.42a7.42,7.42,0,0,1-2.63,6.4A10.43,10.43,0,0,1,565.87,320.48Z" transform="translate(-32.13 -176.87)"/><path class="cls-21" d="M617.93,269.05q-10.06,3.72-20.18,7.63c3.52.14,7,.27,10.56.42q2.25,21.64,4.57,44.06l-21.62-.34q-4.69-51.52-9-99l-3.77-4.26q11.89.73,23.83,1.6l4.25,41q10-3.67,20-7.15c-3.48-.22-6.95-.42-10.43-.62q-1.82-16.44-3.57-32.43,10.23.78,20.5,1.66,5.91,48.06,12.32,100.17l-21.64-.4Q620.76,294.64,617.93,269.05Z" transform="translate(-32.13 -176.87)"/><path class="cls-22" d="M681.61,322.52,660,322q-6.53-49.55-12.56-95.35c-1.31-1.4-2.63-2.8-3.94-4.21q12,1.08,24,2.28Q674.27,271.71,681.61,322.52Z" transform="translate(-32.13 -176.87)"/><path class="cls-23" d="M763.22,273.91q-26.31,7.29-52.73,16.4l14.16.82q4.17,24,8.52,48.9l-29-.31q-10-64.5-19.1-122.77a3.71,3.71,0,0,1,1.27-3.7,3.56,3.56,0,0,1,2.39-.55c2.75.2,22.82,2.89,50.13,6.71l28,3.9-11.46,12.12ZM714,230.14q3.45,19.76,7,40.15,6.56-2,13.11-3.91-3.21-17.52-6.32-34.56Z" transform="translate(-32.13 -176.87)"/></svg>